<svg xmlns="http://www.w3.org/2000/svg" viewBox="0 0 640 400"><rect width="640" height="400" rx="24" fill="#20284e"/><g fill="#f7e9ad"><circle cx="92" cy="76" r="5"/><circle cx="171" cy="45" r="3"/><circle cx="270" cy="88" r="6"/><circle cx="427" cy="52" r="4"/><circle cx="553" cy="96" r="6"/></g><path d="M0 298c140-66 238-27 339-71 103-45 203-17 301 27v146H0z" fill="#48518a"/><g fill="none" stroke="#f8d77d" stroke-width="8"><path d="M151 285V151l93-22v133"/><circle cx="133" cy="286" r="18" fill="#f8d77d"/><circle cx="226" cy="263" r="18" fill="#f8d77d"/><path d="M420 249V127l74 19v121"/><circle cx="402" cy="250" r="18" fill="#f8d77d"/><circle cx="476" cy="268" r="18" fill="#f8d77d"/></g><text x="45" y="78" fill="#fff" font-size="38" font-family="sans-serif">별빛 대화</text></svg>
